<svg xmlns="http://www.w3.org/2000/svg" version="1.1" xmlns:xlink="http://www.w3.org/1999/xlink" xmlns:svgjs="http://svgjs.dev/svgjs" width="1440" height="560" preserveAspectRatio="none" viewBox="0 0 1440 560"><g mask="url(&quot;#SvgjsMask1008&quot;)" fill="none"><rect width="1440" height="560" x="0" y="0" fill="url(&quot;#SvgjsLinearGradient1009&quot;)"></rect><path d="M1440 0L1010.71 0L1440 96.29z" fill="rgba(255, 255, 255, .1)"></path><path d="M1010.71 0L1440 96.29L1440 107.57000000000001L878.8000000000001 0z" fill="rgba(255, 255, 255, .075)"></path><path d="M878.8 0L1440 107.57000000000001L1440 169.33L868.53 0z" fill="rgba(255, 255, 255, .05)"></path><path d="M868.53 0L1440 169.33L1440 405.17L495.82 0z" fill="rgba(255, 255, 255, .025)"></path><path d="M0 560L566.4 560L0 394.3z" fill="rgba(0, 0, 0, .1)"></path><path d="M0 394.3L566.4 560L707.17 560L0 195.98000000000002z" fill="rgba(0, 0, 0, .075)"></path><path d="M0 195.98000000000002L707.17 560L788.48 560L0 106.33000000000001z" fill="rgba(0, 0, 0, .05)"></path><path d="M0 106.33000000000004L788.48 560L1195.5 560L0 62.21000000000004z" fill="rgba(0, 0, 0, .025)"></path></g><defs><mask id="SvgjsMask1008"><rect width="1440" height="560" fill="#ffffff"></rect></mask><linearGradient x1="15.28%" y1="-39.29%" x2="84.72%" y2="139.29%" gradientUnits="userSpaceOnUse" id="SvgjsLinearGradient1009"><stop stop-color="#0e2a47" offset="0"></stop><stop stop-color="rgba(26, 83, 92, 1)" offset="1"></stop></linearGradient></defs></svg>